<svg width="21" height="17" viewBox="0 0 21 17" fill="none" xmlns="http://www.w3.org/2000/svg">
<path d="M1.25 6.25H0C0 6.94 0.56 7.5 1.25 7.5V6.25ZM1.25 10.25V9C0.56 9 0 9.56 0 10.25H1.25ZM19.25 6.25V7.5C19.94 7.5 20.5 6.94 20.5 6.25H19.25ZM19.25 10.25H20.5C20.5 9.56 19.94 9 19.25 9V10.25ZM3.25 2.5H8.25V0H3.25V2.5ZM8.25 2.5H17.25V0H8.25V2.5ZM17.25 14H8.25V16.5H17.25V14ZM8.25 14H3.25V16.5H8.25V14ZM7 1.25V15.25H9.5V1.25H7ZM1.78 7.72C1.92045 7.86063 1.99934 8.05125 1.99934 8.25C1.99934 8.44875 1.92045 8.63937 1.78 8.78L3.548 10.548C4.15743 9.93851 4.49981 9.11191 4.49981 8.25C4.49981 7.38809 4.15743 6.56148 3.548 5.952L1.78 7.72ZM18.72 8.78C18.5795 8.63937 18.5007 8.44875 18.5007 8.25C18.5007 8.05125 18.5795 7.86063 18.72 7.72L16.952 5.952C16.3426 6.56148 16.0002 7.38809 16.0002 8.25C16.0002 9.11191 16.3426 9.93851 16.952 10.548L18.72 8.78ZM1.25 7.5C1.34854 7.49953 1.44618 7.51875 1.53719 7.55653C1.62821 7.59431 1.71076 7.64989 1.78 7.72L3.548 5.952C3.24656 5.64976 2.88836 5.41007 2.494 5.24669C2.09963 5.08332 1.67687 4.99948 1.25 5V7.5ZM2.5 6.25V3.25H0V6.25H2.5ZM2.5 13.25V10.25H0V13.25H2.5ZM1.78 8.78C1.71076 8.85011 1.62821 8.90569 1.53719 8.94347C1.44618 8.98125 1.34854 9.00047 1.25 9V11.5C2.08 11.5 2.914 11.182 3.548 10.548L1.78 8.78ZM18.72 7.72C18.7892 7.64989 18.8718 7.59431 18.9628 7.55653C19.0538 7.51875 19.1515 7.49953 19.25 7.5V5C18.42 5 17.586 5.318 16.952 5.952L18.72 7.72ZM18 3.25V6.25H20.5V3.25H18ZM18 10.25V13.25H20.5V10.25H18ZM19.25 9C19.1515 9.00047 19.0538 8.98125 18.9628 8.94347C18.8718 8.90569 18.7892 8.85011 18.72 8.78L16.952 10.548C17.2534 10.8502 17.6116 11.0899 18.006 11.2533C18.4004 11.4167 18.8231 11.5005 19.25 11.5V9ZM3.25 14C3.05109 14 2.86032 13.921 2.71967 13.7803C2.57902 13.6397 2.5 13.4489 2.5 13.25H0C0 14.112 0.34241 14.9386 0.951903 15.5481C1.5614 16.1576 2.38805 16.5 3.25 16.5V14ZM17.25 16.5C18.112 16.5 18.9386 16.1576 19.5481 15.5481C20.1576 14.9386 20.5 14.112 20.5 13.25H18C18 13.4489 17.921 13.6397 17.7803 13.7803C17.6397 13.921 17.4489 14 17.25 14V16.5ZM17.25 2.5C17.4489 2.5 17.6397 2.57902 17.7803 2.71967C17.921 2.86032 18 3.05109 18 3.25H20.5C20.5 2.38805 20.1576 1.5614 19.5481 0.951903C18.9386 0.34241 18.112 0 17.25 0V2.5ZM3.25 0C2.38805 0 1.5614 0.34241 0.951903 0.951903C0.34241 1.5614 0 2.38805 0 3.25H2.5C2.5 3.05109 2.57902 2.86032 2.71967 2.71967C2.86032 2.57902 3.05109 2.5 3.25 2.5V0Z" fill="#280338"/>
</svg>
